<svg width="1200" height="180" viewBox="0 0 1200 180" fill="none" xmlns="http://www.w3.org/2000/svg">
  <defs>
    <linearGradient id="bg" x1="40" y1="20" x2="1160" y2="160" gradientUnits="userSpaceOnUse">
      <stop stop-color="#0F172A"/>
      <stop offset="0.55" stop-color="#111827"/>
      <stop offset="1" stop-color="#0B1220"/>
    </linearGradient>
    <radialGradient id="glowA" cx="0" cy="0" r="1" gradientUnits="userSpaceOnUse" gradientTransform="translate(280 58) rotate(15) scale(280 120)">
      <stop stop-color="#38BDF8" stop-opacity="0.22"/>
      <stop offset="1" stop-color="#38BDF8" stop-opacity="0"/>
    </radialGradient>
    <radialGradient id="glowB" cx="0" cy="0" r="1" gradientUnits="userSpaceOnUse" gradientTransform="translate(930 120) rotate(-10) scale(260 120)">
      <stop stop-color="#22C55E" stop-opacity="0.18"/>
      <stop offset="1" stop-color="#22C55E" stop-opacity="0"/>
    </radialGradient>
    <pattern id="grid" width="36" height="36" patternUnits="userSpaceOnUse">
      <path d="M36 0H0V36" stroke="#94A3B8" stroke-opacity="0.12"/>
    </pattern>
  </defs>

  <rect x="8" y="8" width="1184" height="164" rx="24" fill="url(#bg)"/>
  <rect x="8" y="8" width="1184" height="164" rx="24" fill="url(#glowA)"/>
  <rect x="8" y="8" width="1184" height="164" rx="24" fill="url(#glowB)"/>
  <rect x="8" y="8" width="1184" height="164" rx="24" fill="url(#grid)"/>

  <g opacity="0.9">
    <path d="M92 132C147 93 202 50 263 50C322 50 377 91 438 132" stroke="#7DD3FC" stroke-opacity="0.32" stroke-width="2.5" stroke-linecap="round"/>
    <path d="M118 132C166 101 212 71 263 71C313 71 360 101 408 132" stroke="#38BDF8" stroke-opacity="0.28" stroke-width="2" stroke-linecap="round"/>
    <path d="M145 132C186 108 223 90 263 90C303 90 341 108 381 132" stroke="#E2E8F0" stroke-opacity="0.18" stroke-width="1.8" stroke-linecap="round"/>
    <circle cx="263" cy="71" r="6" fill="#38BDF8" fill-opacity="0.75"/>
    <circle cx="118" cy="132" r="4" fill="#E2E8F0" fill-opacity="0.6"/>
    <circle cx="408" cy="132" r="4" fill="#E2E8F0" fill-opacity="0.6"/>
  </g>

  <g transform="translate(728 38)">
    <rect x="0" y="0" width="312" height="102" rx="18" fill="#0F172A" fill-opacity="0.72" stroke="#93C5FD" stroke-opacity="0.24"/>
    <rect x="22" y="18" width="134" height="66" rx="14" fill="none" stroke="#34D399" stroke-opacity="0.45" stroke-width="2"/>
    <rect x="48" y="34" width="84" height="34" rx="10" fill="none" stroke="#7DD3FC" stroke-opacity="0.6" stroke-width="2"/>
    <rect x="182" y="22" width="102" height="54" rx="12" fill="#111827" stroke="#F59E0B" stroke-opacity="0.52" stroke-width="2"/>
    <circle cx="252" cy="96" r="8" fill="#22C55E" fill-opacity="0.72"/>
    <circle cx="274" cy="96" r="8" fill="#38BDF8" fill-opacity="0.65"/>
    <circle cx="296" cy="96" r="8" fill="#F8FAFC" fill-opacity="0.28"/>
  </g>

  <g opacity="0.72">
    <path d="M525 40H650" stroke="#E2E8F0" stroke-opacity="0.15" stroke-width="2" stroke-linecap="round"/>
    <path d="M552 68H688" stroke="#38BDF8" stroke-opacity="0.18" stroke-width="2" stroke-linecap="round"/>
    <path d="M500 96H640" stroke="#E2E8F0" stroke-opacity="0.12" stroke-width="2" stroke-linecap="round"/>
    <path d="M542 124H706" stroke="#34D399" stroke-opacity="0.18" stroke-width="2" stroke-linecap="round"/>
  </g>
</svg>
